<svg width="201" height="108" viewBox="0 0 201 108" fill="none" xmlns="http://www.w3.org/2000/svg">
<g opacity="0.3">
<path d="M47.1094 10.3501C76.4695 -20.0684 124.064 -20.0684 153.424 10.3501C182.784 40.7686 182.784 90.0786 153.424 120.497C124.064 150.916 76.4695 150.916 47.1094 120.497C17.7493 90.0786 17.7493 40.7686 47.1094 10.3501" stroke="white" stroke-width="8" stroke-linejoin="round"/>
<path d="M100.333 48.1158C91.0451 48.1158 83.5611 55.8697 83.5611 65.4235C83.5611 74.9774 91.0451 82.7312 100.267 82.7312C109.488 82.7312 116.972 74.9774 116.972 65.4235C117.039 55.8697 109.555 48.1158 100.333 48.1158" stroke="white" stroke-width="8" stroke-linejoin="round"/>
<path d="M146.358 56.6144C146.909 59.4702 147.252 62.3952 147.252 65.424" stroke="white" stroke-width="8" stroke-linejoin="round"/>
<path d="M100.266 16.7454C103.19 16.7454 106.013 17.0916 108.769 17.6714" stroke="white" stroke-width="8" stroke-linejoin="round"/>
<path d="M53.2817 65.4235C53.2817 38.5447 74.3222 16.7456 100.266 16.7456" stroke="white" stroke-width="8" stroke-linejoin="round"/>
<path d="M112.127 53.1354L133.51 30.9815" stroke="white" stroke-width="8" stroke-linejoin="round"/>
</g>
</svg>
